<svg width="722" height="226" viewBox="0 0 722 226" fill="none" xmlns="http://www.w3.org/2000/svg">
<path d="M174.979 107.588C174.979 117.396 173.294 126.418 169.925 134.653C166.556 142.889 161.876 150.002 155.887 155.991C149.897 161.981 142.785 166.66 134.549 170.029C126.388 173.324 117.479 174.971 107.82 174.971H68.2891C58.6309 174.971 49.6839 173.324 41.4482 170.029C33.2126 166.66 26.0999 161.981 20.1104 155.991C14.1208 150.002 9.40397 142.889 5.95996 134.653C2.59082 126.418 0.90625 117.396 0.90625 107.588V76.8164C0.90625 67.0833 2.59082 58.099 5.95996 49.8633C9.40397 41.5527 14.1208 34.4401 20.1104 28.5254C26.0999 22.5358 33.2126 17.8564 41.4482 14.4873C49.6839 11.1182 58.6309 9.43359 68.2891 9.43359H107.82C117.479 9.43359 126.388 11.1182 134.549 14.4873C142.785 17.8564 149.897 22.5358 155.887 28.5254C161.876 34.4401 166.556 41.5527 169.925 49.8633C173.294 58.099 174.979 67.0833 174.979 76.8164V107.588ZM145.779 76.8164C145.779 71.0514 144.843 65.848 142.972 61.2061C141.175 56.4893 138.592 52.4837 135.223 49.1895C131.928 45.8203 127.923 43.2373 123.206 41.4404C118.564 39.5687 113.436 38.6328 107.82 38.6328H68.2891C62.599 38.6328 57.3955 39.5687 52.6787 41.4404C48.0368 43.2373 44.0312 45.8203 40.6621 49.1895C37.293 52.4837 34.6725 56.4893 32.8008 61.2061C31.0039 65.848 30.1055 71.0514 30.1055 76.8164V107.588C30.1055 113.353 31.0039 118.594 32.8008 123.311C34.6725 127.952 37.293 131.958 40.6621 135.327C44.0312 138.621 48.0368 141.204 52.6787 143.076C57.3955 144.873 62.599 145.771 68.2891 145.771H107.596C113.286 145.771 118.452 144.873 123.094 143.076C127.811 141.204 131.854 138.621 135.223 135.327C138.592 131.958 141.175 127.952 142.972 123.311C144.843 118.594 145.779 113.353 145.779 107.588V76.8164Z" fill="black"/>
<path d="M335.125 172.725H305.926V105.342C305.926 101.523 305.252 98.1169 303.904 95.1221C302.632 92.0524 300.872 89.432 298.626 87.2607C296.38 85.0895 293.722 83.4424 290.652 82.3193C287.658 81.1214 284.401 80.5225 280.882 80.5225H229.783V172.725H200.584V65.8105C200.584 63.7891 200.958 61.9173 201.707 60.1953C202.456 58.3984 203.504 56.8636 204.852 55.5908C206.199 54.2432 207.771 53.195 209.568 52.4463C211.365 51.6976 213.274 51.3232 215.296 51.3232H281.106C284.775 51.3232 288.631 51.735 292.674 52.5586C296.792 53.3822 300.835 54.7298 304.803 56.6016C308.846 58.3984 312.664 60.7194 316.258 63.5645C319.926 66.3346 323.146 69.7412 325.916 73.7842C328.761 77.7523 331.007 82.3568 332.654 87.5977C334.301 92.8385 335.125 98.7533 335.125 105.342V172.725Z" fill="black"/>
<path d="M414.075 172.725H401.048C396.855 172.725 392.363 172.013 387.571 170.591C382.854 169.168 378.437 166.847 374.319 163.628C370.202 160.334 366.795 156.104 364.1 150.938C361.404 145.697 360.057 139.295 360.057 131.733V0H389.256V131.733C389.256 135.327 390.379 138.21 392.625 140.381C394.871 142.477 397.679 143.525 401.048 143.525H414.075V172.725Z" fill="black"/>
<path d="M564.9 131.733C564.9 136.75 564.264 141.279 562.991 145.322C561.718 149.29 560.034 152.809 557.938 155.879C555.841 158.874 553.408 161.457 550.638 163.628C547.867 165.724 544.948 167.446 541.878 168.794C538.883 170.142 535.813 171.152 532.669 171.826C529.599 172.425 526.679 172.725 523.909 172.725H471.238C467.195 172.725 462.778 172.013 457.986 170.591C453.195 169.168 448.74 166.847 444.622 163.628C440.579 160.334 437.173 156.104 434.402 150.938C431.707 145.697 430.359 139.295 430.359 131.733V92.2021C430.359 84.7152 431.707 78.3887 434.402 73.2227C437.173 67.9818 440.579 63.7516 444.622 60.5322C448.74 57.238 453.195 54.8796 457.986 53.457C462.778 52.0345 467.195 51.3232 471.238 51.3232H523.909C531.396 51.3232 537.76 52.6709 543.001 55.3662C548.242 58.0615 552.472 61.4681 555.691 65.5859C558.911 69.6289 561.232 74.0462 562.654 78.8379C564.152 83.6296 564.9 88.0843 564.9 92.2021V131.733ZM535.701 92.4268C535.701 88.3838 534.69 85.389 532.669 83.4424C530.647 81.4958 527.728 80.5225 523.909 80.5225H471.463C467.57 80.5225 464.612 81.5332 462.591 83.5547C460.569 85.5013 459.559 88.3838 459.559 92.2021V131.733C459.559 135.552 460.569 138.472 462.591 140.493C464.612 142.515 467.57 143.525 471.463 143.525H523.909C527.877 143.525 530.835 142.515 532.781 140.493C534.728 138.472 535.701 135.552 535.701 131.733V92.4268Z" fill="black"/>
<path d="M721.902 184.404C721.902 189.421 721.266 193.913 719.993 197.881C718.72 201.924 717.036 205.443 714.939 208.438C712.843 211.507 710.41 214.09 707.64 216.187C704.869 218.358 701.95 220.117 698.88 221.465C695.885 222.812 692.815 223.786 689.671 224.385C686.601 225.059 683.681 225.396 680.911 225.396H628.24V196.196H680.911C684.879 196.196 687.837 195.186 689.783 193.164C691.73 191.143 692.703 188.223 692.703 184.404V92.2021C692.703 88.3838 691.73 85.5013 689.783 83.5547C687.837 81.5332 684.879 80.5225 680.911 80.5225H628.24C624.646 80.5225 621.801 81.6455 619.705 83.8916C617.609 86.0628 616.561 88.833 616.561 92.2021V131.733C616.561 135.552 617.571 138.472 619.593 140.493C621.614 142.515 624.572 143.525 628.465 143.525H680.911V172.725H628.24C625.47 172.725 622.55 172.425 619.48 171.826C616.411 171.152 613.341 170.142 610.271 168.794C607.277 167.446 604.394 165.724 601.624 163.628C598.854 161.457 596.421 158.874 594.324 155.879C592.228 152.809 590.543 149.29 589.271 145.322C587.998 141.279 587.361 136.75 587.361 131.733V92.2021C587.361 89.432 587.661 86.512 588.26 83.4424C588.934 80.3727 589.944 77.3405 591.292 74.3457C592.64 71.276 594.362 68.3561 596.458 65.5859C598.629 62.8158 601.212 60.3825 604.207 58.2861C607.277 56.1898 610.796 54.5052 614.764 53.2324C618.732 51.9596 623.224 51.3232 628.24 51.3232H680.911C683.681 51.3232 686.601 51.6602 689.671 52.334C692.815 52.9329 695.885 53.9062 698.88 55.2539C701.95 56.6016 704.869 58.361 707.64 60.5322C710.41 62.6286 712.843 65.2116 714.939 68.2812C717.036 71.276 718.72 74.7575 719.993 78.7256C721.266 82.6937 721.902 87.1859 721.902 92.2021V184.404Z" fill="black"/>
</svg>
