<svg width="61" height="28" viewBox="0 0 61 28" fill="none" xmlns="http://www.w3.org/2000/svg">
<path d="M52.3867 14.2641C51.5414 14.2641 50.7639 14.1261 50.0542 13.85C49.3444 13.5739 48.7315 13.1905 48.2153 12.6997C47.6991 12.2089 47.2958 11.626 47.0055 10.9512C46.7216 10.2824 46.5796 9.55236 46.5796 8.76093V5.5216C46.5796 4.73017 46.7216 3.99702 47.0055 3.32216C47.2958 2.6473 47.6991 2.06446 48.2153 1.57366C48.7315 1.08285 49.3444 0.696337 50.0542 0.414122C50.7639 0.138042 51.5414 -1.07301e-07 52.3867 0L55.0386 1.13756e-07C55.8774 2.20238e-07 56.6517 0.138045 57.3614 0.414125C58.0776 0.69634 58.6906 1.08285 59.2003 1.57366C59.7165 2.06447 60.1198 2.6473 60.4102 3.32216C60.7005 3.99702 60.8457 4.73017 60.8457 5.5216V8.76093C60.8457 9.55236 60.7005 10.2824 60.4102 10.9512C60.1198 11.626 59.7165 12.2089 59.2003 12.6997C58.6906 13.1905 58.0776 13.5739 57.3614 13.85C56.6517 14.1261 55.8774 14.2641 55.0386 14.2641H52.3867Z" fill="black"/>
<path d="M52.3867 14.2641C51.5414 14.2641 50.7639 14.1261 50.0542 13.85C49.3444 13.5739 48.7315 13.1905 48.2153 12.6997C47.6991 12.2089 47.2958 11.626 47.0055 10.9512C46.7216 10.2824 46.5796 9.55236 46.5796 8.76093V5.5216C46.5796 4.73017 46.7216 3.99702 47.0055 3.32216C47.2958 2.6473 47.6991 2.06446 48.2153 1.57366C48.7315 1.08285 49.3444 0.696337 50.0542 0.414122C50.7639 0.138042 51.5414 -1.07301e-07 52.3867 0L55.0386 1.13756e-07C55.8774 2.20238e-07 56.6517 0.138045 57.3614 0.414125C58.0776 0.69634 58.6906 1.08285 59.2003 1.57366C59.7165 2.06447 60.1198 2.6473 60.4102 3.32216C60.7005 3.99702 60.8457 4.73017 60.8457 5.5216V8.76093C60.8457 9.55236 60.7005 10.2824 60.4102 10.9512C60.1198 11.626 59.7165 12.2089 59.2003 12.6997C58.6906 13.1905 58.0776 13.5739 57.3614 13.85C56.6517 14.1261 55.8774 14.2641 55.0386 14.2641H52.3867Z" fill="black"/>
<path fill-rule="evenodd" clip-rule="evenodd" d="M34.0601 5.99248e-05H39.1562C40.7642 5.99248e-05 42.0677 1.27924 42.0677 2.8572V22.4979C42.0677 23.0804 42.2525 23.5477 42.6221 23.8997C42.9917 24.2395 43.4537 24.4094 44.0082 24.4094H48.1405C48.6949 24.4094 49.1569 24.2395 49.5265 23.8997C49.8962 23.5477 50.081 23.0804 50.081 22.4979C50.081 21.4339 50.9599 20.5714 52.044 20.5714H60.2015C60.6425 20.5714 61 20.9223 61 21.355C61 22.5809 60.7782 23.6186 60.3347 24.4681C59.8912 25.3056 59.3306 25.9913 58.6529 26.5254C57.9753 27.0472 57.2484 27.4235 56.4722 27.6541C55.1771 28 48.8304 28 48.1405 28H44.0082H16.5998L11.3957 28C9.73703 28 8.21126 27.729 6.81845 27.1871C5.42564 26.6452 4.22276 25.8925 3.2098 24.929C2.19685 23.9656 1.40548 22.8215 0.835688 21.4968C0.278563 20.1841 -2.0993e-07 18.751 0 17.1974L2.8323e-07 10.8387C4.9316e-07 9.2852 0.278564 7.84607 0.835689 6.52134C1.40548 5.19661 2.19685 4.05253 3.2098 3.08909C4.22276 2.12565 5.42564 1.36694 6.81846 0.812965C8.21127 0.271031 9.73703 6.33613e-05 11.3957 6.35723e-05L16.5998 6.37956e-05L34.0601 5.99248e-05ZM6.01857 9.75037C5.69174 10.5748 5.52832 11.478 5.52832 12.4598V15.5402C5.52832 16.5146 5.69174 17.414 6.01857 18.2384C6.34541 19.0704 6.79934 19.7824 7.38038 20.3745C7.96141 20.9741 8.65139 21.4425 9.45032 21.7798C10.242 22.1171 11.1063 22.2857 12.0432 22.2857H26.7641H28.6884C29.574 22.2857 30.398 22.135 31.1604 21.8336C31.2045 21.8162 31.2484 21.7983 31.2921 21.7798C32.091 21.4425 32.781 20.9741 33.3621 20.3745C33.9431 19.7824 34.4007 19.0704 34.7348 18.2384C35.0616 17.414 35.225 16.5146 35.225 15.5402V12.4598C35.225 11.478 35.0616 10.5748 34.7348 9.75037C34.4007 8.92593 33.9431 8.2139 33.3621 7.61431C32.781 7.01471 32.091 6.54627 31.2921 6.209C31.2445 6.18936 31.1967 6.1703 31.1486 6.15183C30.3896 5.86017 29.5695 5.71433 28.6884 5.71433H26.7546H12.0432C11.1063 5.71433 10.242 5.87922 9.45032 6.209C8.65139 6.54627 7.96141 7.01471 7.38038 7.61431C6.79934 8.2139 6.34541 8.92592 6.01857 9.75037Z" fill="black"/>
</svg>
