<svg xmlns="http://www.w3.org/2000/svg" width="29" height="29" viewBox="0 0 29 29" fill="none">
  <path d="M22.5873 13.0753H15.4555V5.94351C15.4555 5.62827 15.3303 5.32594 15.1073 5.10302C14.8844 4.88011 14.5821 4.75488 14.2669 4.75488C13.9516 4.75488 13.6493 4.88011 13.4264 5.10302C13.2035 5.32594 13.0782 5.62827 13.0782 5.94351V13.0753H5.94644C5.6312 13.0753 5.32887 13.2005 5.10595 13.4234C4.88304 13.6463 4.75781 13.9487 4.75781 14.2639C4.75781 14.5792 4.88304 14.8815 5.10595 15.1044C5.32887 15.3273 5.6312 15.4526 5.94644 15.4526H13.0782V22.5843C13.0782 22.8996 13.2035 23.2019 13.4264 23.4248C13.6493 23.6477 13.9516 23.773 14.2669 23.773C14.5821 23.773 14.8844 23.6477 15.1073 23.4248C15.3303 23.2019 15.4555 22.8996 15.4555 22.5843V15.4526H22.5873C22.9025 15.4526 23.2048 15.3273 23.4278 15.1044C23.6507 14.8815 23.7759 14.5792 23.7759 14.2639C23.7759 13.9487 23.6507 13.6463 23.4278 13.4234C23.2048 13.2005 22.9025 13.0753 22.5873 13.0753Z" fill="#A8A8A8"/>
</svg>