<svg width="30" height="30" viewBox="0 0 41 44" fill="none" xmlns="http://www.w3.org/2000/svg">
<path fill-rule="evenodd" clip-rule="evenodd" d="M38.963 12.2491L21.7672 0.449006C21.4075 0.158302 20.9611 0 20.501 0C20.041 0 19.5946 0.158302 19.2348 0.449006L2.03697 12.2491C1.55766 12.6356 1.17054 13.1268 0.904425 13.6861C0.638313 14.2454 0.500073 14.8583 0.5 15.4793V39.0463C0.5 40.3601 1.01475 41.6201 1.931 42.5491C2.84726 43.4781 4.08996 44 5.38574 44H14.3938V23.8716C14.3938 23.3242 14.6083 22.7992 14.9901 22.4121C15.3719 22.025 15.8897 21.8076 16.4296 21.8076H24.5725C25.1124 21.8076 25.6302 22.025 26.0119 22.4121C26.3937 22.7992 26.6082 23.3242 26.6082 23.8716V44H35.6143C36.91 44 38.1527 43.4781 39.069 42.5491C39.9853 41.6201 40.5 40.3601 40.5 39.0463V15.4813C40.4999 14.8604 40.3617 14.2474 40.0956 13.6881C39.8295 13.1289 39.4423 12.6356 38.963 12.2491Z" fill="#4A4A4A"/>
</svg>
